<svg width="20" height="20" viewBox="0 0 20 20" fill="none" xmlns="http://www.w3.org/2000/svg">
<path fill-rule="evenodd" clip-rule="evenodd" d="M9.50879 3.44934C9.33011 2.7825 8.64469 2.38677 7.97786 2.56545C7.31103 2.74413 6.9153 3.42955 7.09398 4.09638C7.14166 4.27433 7.225 4.43264 7.33458 4.56602C7.67825 4.40591 8.03806 4.27476 8.40917 4.17532C8.78032 4.07588 9.15753 4.00954 9.53524 3.97637C9.56345 3.80607 9.55647 3.62729 9.50879 3.44934ZM11.2056 4.04849C11.2376 3.71171 11.2113 3.3636 11.1187 3.01797C10.7018 1.46203 9.10244 0.538662 7.54649 0.955576C5.99055 1.37249 5.06719 2.97181 5.4841 4.52775C5.57671 4.87336 5.72795 5.188 5.92407 5.46363C5.51171 5.81118 5.14818 6.21083 4.84812 6.65426C4.02948 7.86404 3.74641 9.31192 4.11184 10.6757C4.56642 12.3723 4.4695 13.6856 4.19991 14.6515L4.19546 14.6674C4.0221 15.2885 3.8867 15.7736 3.80118 16.1187C3.75844 16.2911 3.72272 16.45 3.70157 16.5834C3.69108 16.6496 3.68106 16.7284 3.67863 16.8098C3.67681 16.8706 3.67434 17.0274 3.73894 17.1995C3.77441 17.2939 3.84778 17.4807 4.01262 17.6473C4.17746 17.8138 4.36348 17.8891 4.45755 17.9256C4.61085 17.985 4.74989 17.9908 4.81851 17.9914C4.8995 17.9921 4.97606 17.9848 5.03898 17.9766C5.16478 17.9603 5.30842 17.9307 5.45718 17.8963C5.7538 17.8278 6.16473 17.7177 6.68254 17.5789L7.7213 17.3006C8.45082 18.5935 9.9864 19.2819 11.4867 18.8799C12.987 18.4779 13.9726 17.114 13.958 15.6295L16.6066 14.9198C17.1242 14.7811 17.5351 14.671 17.8262 14.5821C17.9722 14.5375 18.1114 14.4913 18.2285 14.4425C18.2871 14.4181 18.357 14.3861 18.4268 14.345C18.4859 14.3102 18.6034 14.2357 18.7065 14.1076C18.7698 14.029 18.8932 13.8708 18.9527 13.6441C19.0121 13.4174 18.9823 13.219 18.9658 13.1194C18.9357 12.9382 18.8551 12.8036 18.8232 12.7519C18.7804 12.6825 18.7323 12.6193 18.6901 12.5672C18.6051 12.4622 18.4947 12.3426 18.3715 12.2146C18.1249 11.9585 17.7651 11.6061 17.3045 11.155L17.2926 11.1433C16.5762 10.4417 15.8356 9.3527 15.381 7.65616C15.0155 6.29237 14.0465 5.18 12.7326 4.54161C12.2511 4.30764 11.7364 4.1433 11.2056 4.04849ZM10.1019 5.61807C10.113 5.61833 10.1242 5.61837 10.1353 5.61819C10.8003 5.623 11.4424 5.76771 12.0042 6.04069C12.9225 6.48687 13.5416 7.2311 13.7711 8.08753C14.3008 10.0644 15.191 11.4179 16.1264 12.334C16.4481 12.6491 16.7089 12.9046 16.9144 13.1101C16.7062 13.1676 16.4556 13.2348 16.1568 13.3148L6.26927 15.9642C5.97052 16.0443 5.71992 16.1114 5.5108 16.1657C5.58602 15.885 5.68413 15.5333 5.80522 15.0996C6.15722 13.8385 6.25142 12.2212 5.72171 10.2444C5.49224 9.38793 5.6563 8.43384 6.22846 7.58831C6.57835 7.07123 7.06178 6.62503 7.63494 6.28842C7.64526 6.2827 7.65546 6.27676 7.66555 6.27059C8.026 6.06251 8.42123 5.89755 8.84054 5.7852C9.26021 5.67275 9.68535 5.61799 10.1019 5.61807ZM12.2342 16.0914L9.4451 16.8387C9.85239 17.2453 10.4594 17.4297 11.0553 17.27C11.6512 17.1103 12.0847 16.6472 12.2342 16.0914ZM13.731 2.99807C13.8457 2.55236 14.3 2.28404 14.7458 2.39876C16.2111 2.77592 17.3629 3.92769 17.7401 5.39306C17.8548 5.83877 17.5865 6.29309 17.1407 6.40781C16.695 6.52252 16.2407 6.2542 16.126 5.80849C15.9002 4.93118 15.2076 4.23862 14.3303 4.01282C13.8846 3.8981 13.6163 3.44378 13.731 2.99807ZM3.18621 5.82352C3.50842 6.15216 3.5032 6.67977 3.17456 7.00197C2.5277 7.63618 2.2742 8.58223 2.5173 9.4549C2.64081 9.89826 2.38152 10.3578 1.93817 10.4813C1.49481 10.6048 1.03528 10.3455 0.91177 9.90216C0.505715 8.44453 0.927291 6.87119 2.00776 5.81187C2.3364 5.48967 2.86401 5.49488 3.18621 5.82352Z" fill="white"/>
</svg>
